<svg id="visual" viewBox="0 0 960 300" width="960" height="300" xmlns="http://www.w3.org/2000/svg" xmlns:xlink="http://www.w3.org/1999/xlink" version="1.1"><rect x="0" y="0" width="960" height="300" fill="#5c13bb"></rect><path d="M0 102L13.3 102.2C26.7 102.3 53.3 102.7 80 99.5C106.7 96.3 133.3 89.7 160 86.5C186.7 83.3 213.3 83.7 240 83.3C266.7 83 293.3 82 320 79C346.7 76 373.3 71 400 70.2C426.7 69.3 453.3 72.7 480 72.2C506.7 71.7 533.3 67.3 560 72C586.7 76.7 613.3 90.3 640 100.8C666.7 111.3 693.3 118.7 720 118.2C746.7 117.7 773.3 109.3 800 103.7C826.7 98 853.3 95 880 94.3C906.7 93.7 933.3 95.3 946.7 96.2L960 97L960 301L946.7 301C933.3 301 906.7 301 880 301C853.3 301 826.7 301 800 301C773.3 301 746.7 301 720 301C693.3 301 666.7 301 640 301C613.3 301 586.7 301 560 301C533.3 301 506.7 301 480 301C453.3 301 426.7 301 400 301C373.3 301 346.7 301 320 301C293.3 301 266.7 301 240 301C213.3 301 186.7 301 160 301C133.3 301 106.7 301 80 301C53.3 301 26.7 301 13.3 301L0 301Z" fill="#715df2"></path><path d="M0 158L13.3 157.3C26.7 156.7 53.3 155.3 80 153.8C106.7 152.3 133.3 150.7 160 143.8C186.7 137 213.3 125 240 126.7C266.7 128.3 293.3 143.7 320 146.3C346.7 149 373.3 139 400 131.7C426.7 124.3 453.3 119.7 480 115.3C506.7 111 533.3 107 560 106.7C586.7 106.3 613.3 109.7 640 113.3C666.7 117 693.3 121 720 124.2C746.7 127.3 773.3 129.7 800 127C826.7 124.3 853.3 116.7 880 120.2C906.7 123.7 933.3 138.3 946.7 145.7L960 153L960 301L946.7 301C933.3 301 906.7 301 880 301C853.3 301 826.7 301 800 301C773.3 301 746.7 301 720 301C693.3 301 666.7 301 640 301C613.3 301 586.7 301 560 301C533.3 301 506.7 301 480 301C453.3 301 426.7 301 400 301C373.3 301 346.7 301 320 301C293.3 301 266.7 301 240 301C213.3 301 186.7 301 160 301C133.3 301 106.7 301 80 301C53.3 301 26.7 301 13.3 301L0 301Z" fill="#6552ed"></path><path d="M0 163L13.3 164.7C26.7 166.3 53.3 169.7 80 166.8C106.7 164 133.3 155 160 150.5C186.7 146 213.3 146 240 146.5C266.7 147 293.3 148 320 147.8C346.7 147.7 373.3 146.3 400 151.2C426.7 156 453.3 167 480 168.2C506.7 169.3 533.3 160.7 560 157.2C586.7 153.7 613.3 155.3 640 160.2C666.7 165 693.3 173 720 175.8C746.7 178.7 773.3 176.3 800 178.7C826.7 181 853.3 188 880 192C906.7 196 933.3 197 946.7 197.5L960 198L960 301L946.7 301C933.3 301 906.7 301 880 301C853.3 301 826.7 301 800 301C773.3 301 746.7 301 720 301C693.3 301 666.7 301 640 301C613.3 301 586.7 301 560 301C533.3 301 506.7 301 480 301C453.3 301 426.7 301 400 301C373.3 301 346.7 301 320 301C293.3 301 266.7 301 240 301C213.3 301 186.7 301 160 301C133.3 301 106.7 301 80 301C53.3 301 26.7 301 13.3 301L0 301Z" fill="#5947e8"></path><path d="M0 227L13.3 226.3C26.7 225.7 53.3 224.3 80 223.7C106.7 223 133.3 223 160 217.2C186.7 211.3 213.3 199.7 240 195.2C266.7 190.7 293.3 193.3 320 199C346.7 204.7 373.3 213.3 400 212.3C426.7 211.3 453.3 200.7 480 199.2C506.7 197.7 533.3 205.3 560 213C586.7 220.7 613.3 228.3 640 230.5C666.7 232.7 693.3 229.3 720 222.7C746.7 216 773.3 206 800 201.3C826.7 196.7 853.3 197.3 880 198.5C906.7 199.7 933.3 201.3 946.7 202.2L960 203L960 301L946.7 301C933.3 301 906.7 301 880 301C853.3 301 826.7 301 800 301C773.3 301 746.7 301 720 301C693.3 301 666.7 301 640 301C613.3 301 586.7 301 560 301C533.3 301 506.7 301 480 301C453.3 301 426.7 301 400 301C373.3 301 346.7 301 320 301C293.3 301 266.7 301 240 301C213.3 301 186.7 301 160 301C133.3 301 106.7 301 80 301C53.3 301 26.7 301 13.3 301L0 301Z" fill="#4b3ce3"></path><path d="M0 236L13.3 235.7C26.7 235.3 53.3 234.7 80 236.8C106.7 239 133.3 244 160 246C186.7 248 213.3 247 240 245.3C266.7 243.7 293.3 241.3 320 244.7C346.7 248 373.3 257 400 255.8C426.7 254.7 453.3 243.3 480 237.5C506.7 231.7 533.3 231.3 560 235.7C586.7 240 613.3 249 640 253.8C666.7 258.7 693.3 259.3 720 255.5C746.7 251.7 773.3 243.3 800 243.5C826.7 243.7 853.3 252.3 880 252.5C906.7 252.7 933.3 244.3 946.7 240.2L960 236L960 301L946.7 301C933.3 301 906.7 301 880 301C853.3 301 826.7 301 800 301C773.3 301 746.7 301 720 301C693.3 301 666.7 301 640 301C613.3 301 586.7 301 560 301C533.3 301 506.7 301 480 301C453.3 301 426.7 301 400 301C373.3 301 346.7 301 320 301C293.3 301 266.7 301 240 301C213.3 301 186.7 301 160 301C133.3 301 106.7 301 80 301C53.3 301 26.7 301 13.3 301L0 301Z" fill="#3c31dd"></path></svg>