<svg id="visual" viewBox="0 0 960 300" width="960" height="300" xmlns="http://www.w3.org/2000/svg" xmlns:xlink="http://www.w3.org/1999/xlink" version="1.1"><rect x="0" y="0" width="960" height="300" fill="#3c31dd"></rect><path d="M0 74L137 66L274 122L411 124L549 64L686 106L823 83L960 149L960 301L823 301L686 301L549 301L411 301L274 301L137 301L0 301Z" fill="#0c99ba"></path><path d="M0 122L137 130L274 150L411 163L549 102L686 131L823 175L960 157L960 301L823 301L686 301L549 301L411 301L274 301L137 301L0 301Z" fill="#0097a6"></path><path d="M0 159L137 162L274 165L411 210L549 202L686 140L823 158L960 173L960 301L823 301L686 301L549 301L411 301L274 301L137 301L0 301Z" fill="#00938e"></path><path d="M0 199L137 234L274 205L411 205L549 241L686 189L823 223L960 181L960 301L823 301L686 301L549 301L411 301L274 301L137 301L0 301Z" fill="#008e71"></path><path d="M0 259L137 247L274 267L411 262L549 226L686 248L823 231L960 267L960 301L823 301L686 301L549 301L411 301L274 301L137 301L0 301Z" fill="#00864b"></path></svg>